<svg width="64" height="64" viewBox="0 0 64 64" fill="none" xmlns="http://www.w3.org/2000/svg">
<path opacity="0.8" d="M0 8C0 3.58172 3.58172 0 8 0H56C60.4183 0 64 3.58172 64 8V56C64 60.4183 60.4183 64 56 64H2C0.895431 64 0 63.1046 0 62V8Z" fill="#030303"/>
<path d="M16.944 42H10.106V22.994H16.762C18.634 22.994 20.2807 23.4013 21.702 24.216C23.1233 25.0133 24.2327 26.1313 25.03 27.57C25.8447 28.9913 26.252 30.6467 26.252 32.536C26.252 34.3907 25.8533 36.0373 25.056 37.476C24.276 38.8973 23.184 40.0067 21.78 40.804C20.3933 41.6013 18.7813 42 16.944 42ZM13.434 24.528V40.492L11.848 38.932H16.632C17.8973 38.932 18.9893 38.672 19.908 38.152C20.8267 37.632 21.5287 36.8953 22.014 35.942C22.4993 34.9887 22.742 33.8533 22.742 32.536C22.742 31.184 22.4907 30.0313 21.988 29.078C21.4853 28.1073 20.766 27.362 19.83 26.842C18.894 26.322 17.7673 26.062 16.45 26.062H11.848L13.434 24.528ZM32.5501 25.984H28.3901V22.994H35.7221V42H32.5501V25.984ZM38.9835 32.536C38.9835 30.56 39.3128 28.8353 39.9715 27.362C40.6475 25.8887 41.5835 24.736 42.7795 23.904C43.9928 23.0547 45.4055 22.63 47.0175 22.63C48.6468 22.63 50.0595 23.0547 51.2555 23.904C52.4688 24.736 53.4048 25.8887 54.0635 27.362C54.7395 28.8353 55.0775 30.56 55.0775 32.536C55.0775 34.4947 54.7568 36.2107 54.1155 37.684C53.4741 39.1573 52.5555 40.3013 51.3595 41.116C50.1635 41.9307 48.7161 42.338 47.0175 42.338C45.3535 42.338 43.9148 41.9307 42.7015 41.116C41.5055 40.3013 40.5868 39.1573 39.9455 37.684C39.3041 36.2107 38.9835 34.4947 38.9835 32.536ZM42.2595 32.536C42.2595 33.992 42.4501 35.24 42.8315 36.28C43.2128 37.3027 43.7588 38.0827 44.4695 38.62C45.1801 39.14 46.0295 39.4 47.0175 39.4C48.0401 39.4 48.8981 39.14 49.5915 38.62C50.3021 38.0827 50.8481 37.3027 51.2295 36.28C51.6108 35.24 51.8015 33.992 51.8015 32.536C51.8015 31.028 51.6108 29.7627 51.2295 28.74C50.8481 27.7 50.3021 26.9113 49.5915 26.374C48.8981 25.8367 48.0401 25.568 47.0175 25.568C46.0295 25.568 45.1801 25.8367 44.4695 26.374C43.7588 26.9113 43.2128 27.7 42.8315 28.74C42.4501 29.7627 42.2595 31.028 42.2595 32.536Z" fill="#C9D4FA"/>
</svg>
