<svg width="160" height="13" viewBox="0 0 160 13" fill="none" xmlns="http://www.w3.org/2000/svg">
<path d="M3.62211 12.5388H-4.43086e-05V0.175182H3.83944C5.01866 0.175182 6.02683 0.420684 6.86395 0.911687C7.70509 1.40269 8.34903 2.107 8.79577 3.02461C9.2425 3.94223 9.46587 5.04296 9.46587 6.32682C9.46587 7.62274 9.23646 8.73555 8.77765 9.66524C8.32287 10.5909 7.65881 11.3012 6.78547 11.7963C5.91615 12.2913 4.8617 12.5388 3.62211 12.5388ZM1.12886 11.5246H3.55571C4.61821 11.5246 5.50765 11.3153 6.22403 10.8968C6.94042 10.4782 7.4777 9.88056 7.83589 9.1038C8.19408 8.32705 8.37318 7.40139 8.37318 6.32682C8.36916 5.26029 8.19207 4.34268 7.84193 3.57397C7.49581 2.80527 6.98066 2.21566 6.29648 1.80515C5.61631 1.39464 4.77517 1.18939 3.77304 1.18939H1.12886V11.5246ZM14.521 0.175182V12.5388H13.3921V0.175182H14.521ZM19.1681 0.175182H20.4721L24.9575 10.9451H25.0662L29.5516 0.175182H30.8556V12.5388H29.7931V2.55977H29.6965L25.525 12.5388H24.4987L20.3272 2.55977H20.2306V12.5388H19.1681V0.175182ZM35.5027 12.5388V0.175182H42.6746V1.18939H36.6316V5.84386H42.2943V6.85807H36.6316V11.5246H42.7953V12.5388H35.5027ZM56.5854 0.175182V12.5388H55.4867L48.182 2.18548H48.0854V12.5388H46.9565V0.175182H48.0492L55.378 10.5406H55.4746V0.175182H56.5854ZM67.9456 3.26609C67.8771 2.57788 67.5733 2.03053 67.034 1.62404C66.4947 1.21756 65.8165 1.01432 64.9995 1.01432C64.424 1.01432 63.9169 1.11292 63.4782 1.31012C63.0436 1.50733 62.7015 1.78101 62.452 2.13115C62.2065 2.47727 62.0837 2.87168 62.0837 3.31439C62.0837 3.64038 62.1541 3.92613 62.295 4.17163C62.4359 4.41713 62.625 4.62842 62.8625 4.80551C63.1039 4.97857 63.3696 5.12748 63.6593 5.25224C63.9531 5.377 64.2489 5.48164 64.5468 5.56616L65.8507 5.94045C66.2452 6.04912 66.6396 6.18797 67.034 6.357C67.4284 6.52603 67.7886 6.73934 68.1146 6.99691C68.4446 7.25047 68.7082 7.56237 68.9054 7.93264C69.1067 8.29888 69.2073 8.73958 69.2073 9.25473C69.2073 9.91477 69.0362 10.5084 68.6941 11.0356C68.3521 11.5628 67.861 11.9814 67.2211 12.2913C66.5812 12.5972 65.8145 12.7501 64.9211 12.7501C64.0799 12.7501 63.3494 12.6113 62.7297 12.3336C62.1099 12.0518 61.6229 11.6635 61.2687 11.1684C60.9146 10.6734 60.7153 10.0999 60.6711 9.44791H61.8302C61.8704 9.93489 62.0314 10.3474 62.3131 10.6855C62.5948 11.0235 62.9611 11.2811 63.4118 11.4582C63.8626 11.6313 64.3657 11.7178 64.9211 11.7178C65.5368 11.7178 66.0842 11.6152 66.5631 11.4099C67.0461 11.2006 67.4244 10.9109 67.698 10.5406C67.9757 10.1663 68.1146 9.73164 68.1146 9.23662C68.1146 8.81806 68.0059 8.46791 67.7886 8.18619C67.5713 7.90044 67.2674 7.66098 66.877 7.4678C66.4907 7.27461 66.0419 7.10357 65.5308 6.95466L64.0517 6.52C63.0818 6.23022 62.3292 5.82977 61.7939 5.31865C61.2587 4.80752 60.991 4.15553 60.991 3.36268C60.991 2.69862 61.1681 2.11505 61.5223 1.61197C61.8805 1.10487 62.3634 0.710456 62.9711 0.428732C63.5829 0.142984 64.2691 0.000110328 65.0297 0.000110328C65.7984 0.000110328 66.4786 0.140972 67.0702 0.422696C67.6618 0.70442 68.1307 1.0928 68.4768 1.58782C68.827 2.07883 69.0141 2.63825 69.0382 3.26609H67.9456ZM74.4128 0.175182V12.5388H73.2839V0.175182H74.4128ZM89.1959 6.357C89.1959 7.64488 88.9665 8.76574 88.5077 9.71957C88.0489 10.6694 87.417 11.4059 86.6121 11.9291C85.8112 12.4483 84.8896 12.7079 83.8472 12.7079C82.8048 12.7079 81.8812 12.4483 81.0763 11.9291C80.2754 11.4059 79.6455 10.6694 79.1867 9.71957C78.7319 8.76574 78.5045 7.64488 78.5045 6.357C78.5045 5.06912 78.7319 3.95028 79.1867 3.00047C79.6455 2.04663 80.2774 1.31012 81.0823 0.790948C81.8872 0.267748 82.8088 0.00614744 83.8472 0.00614744C84.8896 0.00614744 85.8112 0.267748 86.6121 0.790948C87.417 1.31012 88.0489 2.04663 88.5077 3.00047C88.9665 3.95028 89.1959 5.06912 89.1959 6.357ZM88.0972 6.357C88.0972 5.25023 87.9121 4.30243 87.5418 3.51361C87.1715 2.72075 86.6664 2.11505 86.0265 1.69649C85.3866 1.27793 84.6602 1.06865 83.8472 1.06865C83.0383 1.06865 82.3138 1.27793 81.6739 1.69649C81.034 2.11505 80.5269 2.71874 80.1526 3.50757C79.7823 4.29639 79.5972 5.2462 79.5972 6.357C79.5972 7.46377 79.7823 8.41157 80.1526 9.2004C80.5229 9.98922 81.028 10.5949 81.6679 11.0175C82.3078 11.4361 83.0342 11.6454 83.8472 11.6454C84.6602 11.6454 85.3866 11.4361 86.0265 11.0175C86.6705 10.599 87.1776 9.99526 87.5478 9.20643C87.9181 8.41358 88.1012 7.46377 88.0972 6.357ZM102.915 0.175182V12.5388H101.816L94.5116 2.18548H94.415V12.5388H93.2861V0.175182H94.3788L101.708 10.5406H101.804V0.175182H102.915ZM107.76 12.5388V11.1443L114.099 2.05267H107.724V0.175182H116.876V1.56971L110.543 10.6613H116.912V12.5388H107.76ZM121.629 12.5388V0.175182H129.671V2.05267H123.869V5.4092H129.254V7.28669H123.869V10.6613H129.719V12.5388H121.629ZM134.506 12.5388V0.175182H136.745V5.4092H142.474V0.175182H144.72V12.5388H142.474V7.28669H136.745V12.5388H134.506ZM159.866 0.175182V12.5388H157.874L152.048 4.1173H151.946V12.5388H149.706V0.175182H151.71L157.53 8.60274H157.639V0.175182H159.866Z" fill="white"/>
</svg>
