<svg width="64" height="64" viewBox="0 0 64 64" fill="none" xmlns="http://www.w3.org/2000/svg">
<g clip-path="url(#clip0_14_7)">
<rect width="64" height="64" fill="black"/>
<path d="M5 0.75H59C61.347 0.75 63.25 2.65279 63.25 5V60C63.25 61.795 61.795 63.25 60 63.25H0.75V5C0.75 2.65279 2.65279 0.75 5 0.75Z" stroke="white" stroke-width="3"/>
<path d="M19.8068 39.5H15.098V24.9545H19.9559C21.3811 24.9545 22.6051 25.2457 23.6278 25.8281C24.6505 26.4058 25.4342 27.2367 25.9787 28.321C26.5279 29.4005 26.8025 30.6955 26.8025 32.2059C26.8025 33.7211 26.5255 35.0232 25.9716 36.1122C25.4223 37.2012 24.6269 38.0393 23.5852 38.6264C22.5435 39.2088 21.2841 39.5 19.8068 39.5ZM17.2926 37.5824H19.6861C20.794 37.5824 21.7149 37.374 22.4488 36.9574C23.1827 36.536 23.732 35.9275 24.0966 35.1321C24.4611 34.3319 24.6434 33.3565 24.6434 32.2059C24.6434 31.0648 24.4611 30.0966 24.0966 29.3011C23.7367 28.5057 23.1993 27.902 22.4844 27.49C21.7694 27.0781 20.8816 26.8721 19.821 26.8721H17.2926V37.5824ZM34.8512 24.9545V39.5H32.6495V27.1562H32.5643L29.0841 29.429V27.3267L32.7134 24.9545H34.8512ZM43.8498 39.7415C42.7276 39.7367 41.7688 39.4408 40.9733 38.8537C40.1779 38.2665 39.5695 37.4119 39.1481 36.2897C38.7267 35.1676 38.516 33.8158 38.516 32.2344C38.516 30.6576 38.7267 29.3106 39.1481 28.1932C39.5742 27.0757 40.185 26.2235 40.9804 25.6363C41.7806 25.0492 42.7371 24.7557 43.8498 24.7557C44.9625 24.7557 45.9165 25.0516 46.712 25.6434C47.5074 26.2306 48.1159 27.0828 48.5373 28.2003C48.9634 29.3129 49.1765 30.6576 49.1765 32.2344C49.1765 33.8205 48.9658 35.1747 48.5444 36.2969C48.123 37.4143 47.5145 38.2689 46.7191 38.8608C45.9236 39.4479 44.9672 39.7415 43.8498 39.7415ZM43.8498 37.8451C44.8346 37.8451 45.604 37.3646 46.158 36.4034C46.7167 35.4422 46.9961 34.0525 46.9961 32.2344C46.9961 31.027 46.8682 30.0066 46.6125 29.1733C46.3616 28.3352 45.9994 27.7007 45.5259 27.2699C45.0571 26.8343 44.4984 26.6165 43.8498 26.6165C42.8696 26.6165 42.1002 27.0994 41.5415 28.0653C40.9828 29.0312 40.7011 30.4209 40.6964 32.2344C40.6964 33.4465 40.8218 34.4716 41.0728 35.3096C41.3285 36.143 41.6907 36.7751 42.1594 37.2059C42.6282 37.6321 43.1916 37.8451 43.8498 37.8451Z" fill="white"/>
</g>
<defs>
<clipPath id="clip0_14_7">
<rect width="64" height="64" fill="white"/>
</clipPath>
</defs>
</svg>
